<?xml version="1.0" encoding="UTF-8"?><svg id="Layer_2" xmlns="http://www.w3.org/2000/svg" viewBox="0 0 61.37 95.2"><defs><style>.cls-1{fill:#438bca;}.cls-1,.cls-2{stroke-width:0px;}.cls-2{fill:#fff;}</style></defs><g id="Layer_1-2"><path class="cls-1" d="m61.37,32.36c.03,1.97-.35,3.87-.84,5.76-.94,3.61-2.31,7.07-3.78,10.49-1.58,3.68-3.33,7.28-5.16,10.85-2.65,5.17-5.46,10.24-8.36,15.27-3.14,5.44-6.39,10.82-9.73,16.14-.86,1.37-1.74,2.74-2.61,4.11-.19.31-.2.3-.4-.01-3.03-4.71-5.97-9.48-8.84-14.29-2.64-4.41-5.2-8.87-7.68-13.37-1.61-2.93-3.18-5.88-4.69-8.86-2-3.96-3.91-7.97-5.6-12.08-1.15-2.82-2.18-5.68-2.95-8.64C.14,35.44-.09,33.12.03,30.76c.16-3.19.59-6.34,1.48-9.42,1.19-4.11,3.08-7.86,5.87-11.13,3.2-3.75,7.15-6.42,11.76-8.15,2.12-.8,4.31-1.35,6.54-1.68,1.23-.19,2.46-.29,3.7-.35,1.3-.06,2.59-.03,3.88.07,3.64.28,7.15,1.11,10.5,2.57,3.56,1.55,6.7,3.72,9.36,6.56,2.08,2.22,3.73,4.72,5.02,7.47,1.23,2.65,2.06,5.43,2.58,8.3.24,1.33.41,2.68.51,4.03.08,1.11.13,2.21.15,3.32Z"/><path class="cls-2" d="m24.06,21.66c-2.26.13-4.36.66-5.97,2.43-1.26,1.39-.91,3.5.77,4.31,2.54,1.23,5.05.9,7.48-.32,2.83-1.42,5.63-1.52,8.43.03,1.64.91,3.36,1.44,5.27.99,1.35-.32,2.64-.8,3.66-1.74,1.75-1.63.59-4.39-1.53-5.15-2.42-.87-4.75-.7-7.02.45-2.29,1.16-4.65,1.42-6.95.21-1.32-.69-2.6-1.28-4.14-1.21Zm-3.22,20.33c2.02.08,3.79-.47,5.46-1.66,2.71-1.94,2.48-5.59-.6-7-3.46-1.58-6.79-1.27-9.76,1.08-1.83,1.44-2.34,4.01-.28,5.93,1.46,1.35,3.25,1.74,5.18,1.65Zm16.93.17c1.67.17,3.25-.43,4.7-1.43,2.97-2.03,2.68-5.97-.5-7.62-1.33-.69-2.69-.9-4.15-.84-2.29.09-4.24.87-5.68,2.72-1.24,1.59-1.08,3.84.32,5.31,1.43,1.5,3.2,1.92,5.31,1.85Zm1.93-28.62c-1.48.07-2.78.4-3.92,1.13-.59.38-1.11.88-1.19,1.73-.14,1.35.9,2.25,2.01,2.61,2.3.76,4.54.69,6.69-.58,1.59-.94,1.68-2.77.18-3.83-1.18-.84-2.55-.87-3.77-1.06Z"/><path class="cls-2" d="m24.06,21.66c1.53-.08,2.81.51,4.14,1.21,2.31,1.21,4.67.95,6.95-.21,2.27-1.15,4.6-1.31,7.02-.45,2.12.76,3.28,3.53,1.53,5.15-1.02.94-2.31,1.42-3.66,1.74-1.91.45-3.62-.08-5.27-.99-2.8-1.56-5.6-1.45-8.43-.03-2.43,1.22-4.93,1.55-7.48.32-1.69-.82-2.03-2.93-.77-4.31,1.61-1.77,3.71-2.3,5.97-2.43Z"/><path class="cls-2" d="m20.84,41.99c-1.93.09-3.72-.3-5.18-1.65-2.06-1.91-1.55-4.48.28-5.93,2.97-2.34,6.31-2.66,9.76-1.08,3.08,1.41,3.31,5.06.6,7-1.67,1.19-3.45,1.74-5.46,1.66Z"/><path class="cls-2" d="m37.77,42.16c-2.1.07-3.88-.35-5.31-1.85-1.4-1.47-1.56-3.72-.32-5.31,1.44-1.85,3.39-2.63,5.68-2.72,1.46-.06,2.82.15,4.15.84,3.18,1.65,3.47,5.59.5,7.62-1.45,1-3.03,1.6-4.7,1.43Z"/><path class="cls-2" d="m39.7,13.54c1.22.19,2.59.23,3.77,1.06,1.5,1.06,1.41,2.89-.18,3.83-2.15,1.27-4.38,1.34-6.69.58-1.11-.37-2.15-1.27-2.01-2.61.09-.85.6-1.35,1.19-1.73,1.14-.73,2.44-1.06,3.92-1.13Z"/></g></svg>