<?xml version="1.0" encoding="UTF-8"?><svg id="Layer_2" xmlns="http://www.w3.org/2000/svg" viewBox="0 0 520.68 807.71"><defs><style>.cls-1{fill:#2c4776;}.cls-1,.cls-2{stroke-width:0px;}.cls-2{fill:#fff;}</style></defs><g id="Layer_1-2"><path class="cls-1" d="m520.67,274.51c.25,16.69-2.95,32.87-7.14,48.9-8,30.62-19.59,59.95-32.07,88.96-13.44,31.22-28.27,61.79-43.78,92.02-22.48,43.82-46.31,86.92-70.92,129.58-26.65,46.18-54.2,91.81-82.53,136.97-7.31,11.66-14.75,23.23-22.14,34.84-1.65,2.59-1.68,2.59-3.4-.09-25.72-39.97-50.66-80.41-75.02-121.21-22.36-37.44-44.14-75.22-65.16-113.43-13.66-24.83-26.97-49.86-39.77-75.15-17.01-33.61-33.21-67.59-47.47-102.47-9.78-23.94-18.53-48.23-25.03-73.3-5.04-19.45-6.98-39.15-5.96-59.2,1.37-27.09,4.97-53.82,12.55-79.94,10.12-34.89,26.15-66.67,49.84-94.39,27.18-31.8,60.69-54.46,99.76-69.12,17.99-6.75,36.53-11.42,55.5-14.29,10.4-1.57,20.88-2.44,31.39-2.94,10.99-.53,21.96-.21,32.9.64,30.87,2.39,60.63,9.42,89.05,21.82,30.23,13.19,56.85,31.57,79.44,55.65,17.64,18.8,31.68,40.04,42.55,63.42,10.45,22.49,17.45,46.04,21.85,70.38,2.04,11.31,3.45,22.71,4.31,34.18.7,9.38,1.08,18.76,1.27,28.16Z"/><path class="cls-2" d="m204.1,183.77c-19.2,1.09-36.97,5.57-50.64,20.57-10.72,11.76-7.75,29.67,6.54,36.6,21.59,10.47,42.8,7.64,63.44-2.71,23.99-12.03,47.73-12.94,71.52.29,13.95,7.75,28.51,12.18,44.71,8.39,11.46-2.68,22.42-6.77,31.04-14.77,14.86-13.79,5.01-37.26-12.97-43.72-20.49-7.36-40.26-5.96-59.55,3.79-19.4,9.81-39.42,12.05-58.99,1.79-11.22-5.88-22.1-10.9-35.1-10.24Zm-27.28,172.47c17.1.7,32.19-3.97,46.35-14.07,23.02-16.43,21.06-47.4-5.1-59.35-29.34-13.41-57.63-10.77-82.84,9.13-15.49,12.23-19.87,34.05-2.35,50.28,12.36,11.44,27.55,14.74,43.94,14.02Zm143.62,1.47c14.19,1.43,27.58-3.64,39.91-12.1,25.16-17.25,22.73-50.68-4.24-64.68-11.26-5.84-22.84-7.61-35.19-7.1-19.45.8-35.98,7.42-48.2,23.11-10.53,13.52-9.13,32.59,2.71,45.06,12.09,12.73,27.17,16.32,45.01,15.72Zm16.39-242.78c-12.57.63-23.59,3.39-33.24,9.6-5.04,3.24-9.41,7.49-10.14,14.69-1.15,11.44,7.64,19.05,17.1,22.17,19.53,6.45,38.49,5.82,56.72-4.93,13.5-7.96,14.26-23.53,1.56-32.51-10.04-7.11-21.64-7.37-32-9.02Z"/><path class="cls-2" d="m204.1,183.77c13-.66,23.88,4.35,35.1,10.24,19.56,10.26,39.58,8.02,58.99-1.79,19.29-9.75,39.06-11.15,59.55-3.79,17.98,6.46,27.83,29.93,12.97,43.72-8.62,8-19.57,12.09-31.04,14.77-16.19,3.79-30.75-.64-44.71-8.39-23.8-13.22-47.53-12.32-71.52-.29-20.63,10.35-41.85,13.18-63.44,2.71-14.3-6.94-17.26-24.84-6.54-36.6,13.67-15.01,31.43-19.48,50.64-20.57Z"/><path class="cls-2" d="m176.82,356.23c-16.39.72-31.58-2.58-43.94-14.02-17.52-16.22-13.14-38.05,2.35-50.28,25.2-19.89,53.5-22.53,82.84-9.13,26.16,11.96,28.12,42.92,5.1,59.35-14.16,10.1-29.25,14.77-46.35,14.07Z"/><path class="cls-2" d="m320.44,357.7c-17.85.59-32.92-2.99-45.01-15.72-11.84-12.47-13.24-31.53-2.71-45.06,12.22-15.69,28.74-22.31,48.2-23.11,12.36-.51,23.94,1.26,35.19,7.1,26.97,14,29.4,47.43,4.24,64.68-12.33,8.46-25.72,13.54-39.91,12.1Z"/><path class="cls-2" d="m336.84,114.92c10.36,1.65,21.95,1.91,32,9.02,12.7,8.99,11.94,24.55-1.56,32.51-18.23,10.75-37.18,11.38-56.72,4.93-9.46-3.12-18.24-10.73-17.1-22.17.72-7.2,5.1-11.45,10.14-14.69,9.65-6.2,20.67-8.97,33.24-9.6Z"/></g></svg>