<?xml version="1.0" encoding="utf-8"?>
<!-- Generator: Adobe Illustrator 26.0.1, SVG Export Plug-In . SVG Version: 6.00 Build 0)  -->
<svg version="1.1" id="Warstwa_1" xmlns="http://www.w3.org/2000/svg" xmlns:xlink="http://www.w3.org/1999/xlink" x="0px" y="0px"
	 viewBox="0 0 169.7 39.6" style="enable-background:new 0 0 169.7 39.6;" xml:space="preserve">
<style type="text/css">
	.st0{fill:#04387C;}
	.st1{fill:#009EE3;}
</style>
<g>
	<path class="st0" d="M45.6,9.5L45.6,9.5h-0.2l-2.1,9.9h4.1L45.6,9.5z M48.8,25.9l-0.9-4.7H43l-1.1,4.7h-3.6L43,7.5h5.2l4.5,18.4
		H48.8z"/>
	<polygon class="st0" points="55.3,25.9 55.3,7.5 59.1,7.5 59.1,24 64.5,24 64.5,25.9 	"/>
	<path class="st0" d="M73.1,9.5L73.1,9.5h-0.2l-2.1,9.9h4.1L73.1,9.5z M76.2,25.9l-0.9-4.7h-4.9l-1.1,4.7h-3.6l4.8-18.4h5.2
		l4.5,18.4C80.2,25.9,76.2,25.9,76.2,25.9z"/>
	<path class="st0" d="M90.4,19.3L90.4,19.3c0-1.7-0.6-2.1-3.2-2.1h-0.8v6.9h0.8c2.6,0,3.2-0.5,3.2-2.1V19.3z M90.1,11.4L90.1,11.4
		c0-1.6-0.5-2-3-2h-0.8v6.1h0.8c2.4,0,3-0.5,3-2V11.4z M88.1,25.9h-5.4V7.5h5.1c4.3,0,6.2,0.7,6.2,3.1v3c0,1.7-1,2.5-3.6,2.8
		c2.7,0.2,3.9,1,3.9,2.7v3.8C94.3,25.2,92.5,25.9,88.1,25.9z"/>
	<polygon class="st1" points="100.2,25.6 104,12.8 105.6,12.8 101.8,25.6 	"/>
	<path class="st1" d="M109.2,20.9L109.2,20.9c-1.6,0-2.2,0.3-2.5,1.2l-0.4,1.4c-0.3,0.9-0.2,1.4,0.6,1.4c0.8,0,1.2-0.4,1.5-1.4
		L109.2,20.9z M107.9,25.6L108,25c-0.6,0.5-1.3,0.8-2.2,0.8c-1.4,0-1.6-0.7-1.2-2l0.5-1.8c0.4-1.4,1.6-1.9,4.4-2l0.4-1.3
		c0.3-1,0.2-1.4-0.6-1.4c-0.8,0-1.1,0.3-1.4,1.1l-0.1,0.5h-1.6l0.1-0.2c0.5-1.6,1.2-2.3,3.3-2.3c2.1,0,2.4,0.7,1.9,2.3l-2,6.8
		L107.9,25.6z"/>
	<path class="st1" d="M117.5,18.8L117.5,18.8c0.3-0.9,0.2-1.4-0.6-1.4c-0.8,0-1.2,0.4-1.5,1.4l-1.4,4.8c-0.3,0.9-0.2,1.4,0.7,1.4
		c0.9,0,1.2-0.4,1.5-1.4L117.5,18.8z M115.2,25.8c-0.9,0-1.4-0.3-1.7-0.8l-0.3,0.5h-1.5l3.8-12.8h1.6l-1.3,4.4
		c0.6-0.5,1.3-0.8,2.2-0.8c1.4,0,1.6,0.7,1.2,2l-1.6,5.2C117.2,25.2,116.6,25.8,115.2,25.8z"/>
	<path class="st1" d="M125.1,18.8L125.1,18.8c0.3-0.9,0.2-1.4-0.6-1.4c-0.8,0-1.2,0.4-1.5,1.4l-1.4,4.8c-0.3,0.9-0.2,1.4,0.6,1.4
		c0.8,0,1.1-0.4,1.4-1.4L125.1,18.8z M122,25.9c-2.2,0-2.4-0.8-1.9-2.6l1.3-4.2c0.5-1.8,1.2-2.5,3.4-2.5c2.1,0,2.4,0.8,1.9,2.5
		l-1.3,4.3C124.9,25.1,124.2,25.9,122,25.9z"/>
	<path class="st1" d="M132.9,17.7c-1.4,0-2,0.4-2.3,1.5l-1.9,6.5h-1.6l2.7-8.9h1.5l-0.1,0.6c0.6-0.5,1.3-0.8,2.1-0.8
		c0.1,0,0.2,0,0.3,0l-0.3,1.1L132.9,17.7z"/>
	<path class="st1" d="M136.9,21L136.9,21c-1.6,0-2.2,0.3-2.5,1.2l-0.4,1.4c-0.3,0.9-0.2,1.4,0.6,1.4s1.2-0.4,1.5-1.4L136.9,21z
		 M135.6,25.7l0.1-0.5c-0.6,0.5-1.3,0.8-2.2,0.8c-1.4,0-1.6-0.7-1.2-2l0.5-1.8c0.4-1.4,1.6-1.9,4.4-2l0.4-1.3c0.3-1,0.2-1.4-0.6-1.4
		s-1.1,0.3-1.4,1.1l-0.1,0.5h-1.6l0.1-0.2c0.5-1.6,1.2-2.3,3.3-2.3s2.4,0.7,1.9,2.3l-2,6.8H135.6z"/>
	<path class="st1" d="M141.5,25.9c-1.9,0-1.9-0.6-1.4-2.2l1.8-6.1H141l0.3-0.9h0.9l0.6-2l1.7-0.4l-0.7,2.4h1.2l-0.3,0.9h-1.2l-2,6.6
		c-0.1,0.5,0,0.7,0.8,0.7h0.2l-0.3,0.9C142,25.9,141.7,25.9,141.5,25.9"/>
	<path class="st1" d="M149.6,18.9L149.6,18.9c0.3-0.9,0.2-1.4-0.6-1.4s-1.2,0.4-1.5,1.4l-1.4,4.8c-0.3,0.9-0.2,1.4,0.6,1.4
		s1.1-0.4,1.4-1.4L149.6,18.9z M146.4,25.9c-2.2,0-2.4-0.8-1.9-2.6l1.3-4.2c0.5-1.8,1.2-2.5,3.4-2.5s2.4,0.8,1.9,2.5l-1.3,4.3
		C149.3,25.2,148.6,25.9,146.4,25.9z"/>
	<path class="st1" d="M157.4,17.7c-1.4,0-2,0.4-2.3,1.5l-1.9,6.5h-1.6l2.7-8.9h1.5l-0.1,0.6c0.6-0.5,1.3-0.8,2.1-0.8
		c0.1,0,0.2,0,0.3,0l-0.3,1.1L157.4,17.7z"/>
	<path class="st1" d="M159.7,14.3L159.7,14.3l0.4-1.3h1.8l-0.4,1.3H159.7z M156.3,25.7l2.7-8.9h1.6l-2.7,8.9H156.3z"/>
	<path class="st1" d="M165.3,21L165.3,21c-1.6,0-2.2,0.3-2.5,1.2l-0.4,1.4c-0.3,0.9-0.2,1.4,0.6,1.4s1.2-0.4,1.5-1.4L165.3,21z
		 M164,25.7l0.1-0.6c-0.6,0.5-1.3,0.8-2.2,0.8c-1.4,0-1.6-0.7-1.2-2l0.5-1.8c0.4-1.4,1.6-1.9,4.4-2l0.4-1.3c0.3-1,0.2-1.4-0.6-1.4
		s-1.1,0.3-1.4,1.1l-0.2,0.5h-1.6l0.1-0.2c0.5-1.6,1.2-2.3,3.3-2.3s2.4,0.7,1.9,2.3l-2.1,6.8L164,25.7z"/>
	<polygon class="st1" points="100.2,25.6 104,12.8 105.6,12.8 101.8,25.6 	"/>
	<path class="st1" d="M109.2,20.9L109.2,20.9c-1.6,0-2.2,0.3-2.5,1.2l-0.4,1.4c-0.3,0.9-0.2,1.4,0.6,1.4c0.8,0,1.2-0.4,1.5-1.4
		L109.2,20.9z M107.9,25.6L108,25c-0.6,0.5-1.3,0.8-2.2,0.8c-1.4,0-1.6-0.7-1.2-2l0.5-1.8c0.4-1.4,1.6-1.9,4.4-2l0.4-1.3
		c0.3-1,0.2-1.4-0.6-1.4c-0.8,0-1.1,0.3-1.4,1.1l-0.1,0.5h-1.6l0.1-0.2c0.5-1.6,1.2-2.3,3.3-2.3c2.1,0,2.4,0.7,1.9,2.3l-2,6.8
		L107.9,25.6z"/>
	<path class="st1" d="M117.5,18.8L117.5,18.8c0.3-0.9,0.2-1.4-0.6-1.4c-0.8,0-1.2,0.4-1.5,1.4l-1.4,4.8c-0.3,0.9-0.2,1.4,0.7,1.4
		c0.9,0,1.2-0.4,1.5-1.4L117.5,18.8z M115.2,25.8c-0.9,0-1.4-0.3-1.7-0.8l-0.3,0.5h-1.5l3.8-12.8h1.6l-1.3,4.4
		c0.6-0.5,1.3-0.8,2.2-0.8c1.4,0,1.6,0.7,1.2,2l-1.6,5.2C117.2,25.2,116.6,25.8,115.2,25.8z"/>
	<path class="st1" d="M125.1,18.8L125.1,18.8c0.3-0.9,0.2-1.4-0.6-1.4c-0.8,0-1.2,0.4-1.5,1.4l-1.4,4.8c-0.3,0.9-0.2,1.4,0.6,1.4
		c0.8,0,1.1-0.4,1.4-1.4L125.1,18.8z M122,25.9c-2.2,0-2.4-0.8-1.9-2.6l1.3-4.2c0.5-1.8,1.2-2.5,3.4-2.5c2.1,0,2.4,0.8,1.9,2.5
		l-1.3,4.3C124.9,25.1,124.2,25.9,122,25.9z"/>
	<path class="st1" d="M132.9,17.7c-1.4,0-2,0.4-2.3,1.5l-1.9,6.5h-1.6l2.7-8.9h1.5l-0.1,0.6c0.6-0.5,1.3-0.8,2.1-0.8
		c0.1,0,0.2,0,0.3,0l-0.3,1.1L132.9,17.7z"/>
	<path class="st1" d="M136.9,21L136.9,21c-1.6,0-2.2,0.3-2.5,1.2l-0.4,1.4c-0.3,0.9-0.2,1.4,0.6,1.4s1.2-0.4,1.5-1.4L136.9,21z
		 M135.6,25.7l0.1-0.5c-0.6,0.5-1.3,0.8-2.2,0.8c-1.4,0-1.6-0.7-1.2-2l0.5-1.8c0.4-1.4,1.6-1.9,4.4-2l0.4-1.3c0.3-1,0.2-1.4-0.6-1.4
		s-1.1,0.3-1.4,1.1l-0.1,0.5h-1.6l0.1-0.2c0.5-1.6,1.2-2.3,3.3-2.3s2.4,0.7,1.9,2.3l-2,6.8H135.6z"/>
	<path class="st1" d="M141.5,25.9c-1.9,0-1.9-0.6-1.4-2.2l1.8-6.1H141l0.3-0.9h0.9l0.6-2l1.7-0.4l-0.7,2.4h1.2l-0.3,0.9h-1.2l-2,6.6
		c-0.1,0.5,0,0.7,0.8,0.7h0.2l-0.3,0.9C142,25.9,141.7,25.9,141.5,25.9"/>
	<path class="st1" d="M149.6,18.9L149.6,18.9c0.3-0.9,0.2-1.4-0.6-1.4s-1.2,0.4-1.5,1.4l-1.4,4.8c-0.3,0.9-0.2,1.4,0.6,1.4
		s1.1-0.4,1.4-1.4L149.6,18.9z M146.4,25.9c-2.2,0-2.4-0.8-1.9-2.6l1.3-4.2c0.5-1.8,1.2-2.5,3.4-2.5s2.4,0.8,1.9,2.5l-1.3,4.3
		C149.3,25.2,148.6,25.9,146.4,25.9z"/>
	<path class="st1" d="M157.4,17.7c-1.4,0-2,0.4-2.3,1.5l-1.9,6.5h-1.6l2.7-8.9h1.5l-0.1,0.6c0.6-0.5,1.3-0.8,2.1-0.8
		c0.1,0,0.2,0,0.3,0l-0.3,1.1L157.4,17.7z"/>
	<path class="st1" d="M159.7,14.3L159.7,14.3l0.4-1.3h1.8l-0.4,1.3H159.7z M156.3,25.7l2.7-8.9h1.6l-2.7,8.9H156.3z"/>
	<path class="st1" d="M165.3,21L165.3,21c-1.6,0-2.2,0.3-2.5,1.2l-0.4,1.4c-0.3,0.9-0.2,1.4,0.6,1.4s1.2-0.4,1.5-1.4L165.3,21z
		 M164,25.7l0.1-0.6c-0.6,0.5-1.3,0.8-2.2,0.8c-1.4,0-1.6-0.7-1.2-2l0.5-1.8c0.4-1.4,1.6-1.9,4.4-2l0.4-1.3c0.3-1,0.2-1.4-0.6-1.4
		s-1.1,0.3-1.4,1.1l-0.2,0.5h-1.6l0.1-0.2c0.5-1.6,1.2-2.3,3.3-2.3s2.4,0.7,1.9,2.3l-2.1,6.8L164,25.7z"/>
	<path class="st1" d="M27.1,19.7c-0.2,0-1.5,0.1-1.9,0.1c-2.3,0-4.4-1.1-5.7-2.8l-0.1-0.1c-0.8-1.2-1.3-2.6-1.3-4.1s1.7-4.9,1.9-5.3
		c1.9-3.2-0.5-6.2-3.4-6.2s-5.2,3-3.4,6.2c0.2,0.3,2,3.6,2,5.3c0,1.3-0.4,2.6-1,3.6c0,0-0.4,0.6-0.5,0.7c-1.3,1.7-3.3,2.7-5.6,2.7
		c-0.4,0-1.7-0.1-2-0.1c-3.7,0-5.1,3.5-3.7,6s5.2,3,7.1-0.2c0.2-0.3,0.3-0.6,0.5-0.9c1.1-2.5,3.7-4.3,6.6-4.3c2.8,0,5.3,1.7,6.4,4
		c0.3,0.4,0.5,0.7,0.7,1.1c1.9,3.2,5.6,2.7,7.1,0.2C32.3,23.2,30.8,19.7,27.1,19.7"/>
	<path class="st0" d="M39.9,34.8L39.9,34.8c0-0.3-0.1-0.5-0.4-0.5c-0.3,0-0.3,0.1-0.3,0.5v1.6c0,0.3,0.1,0.5,0.3,0.5
		c0.3,0,0.4-0.2,0.4-0.5V34.8z M39.5,37.3c-0.9,0-1.2-0.3-1.2-1.1V35c0-0.8,0.2-1.1,1.2-1.1c0.9,0,1.2,0.3,1.2,1.1v1.2
		C40.7,37,40.5,37.3,39.5,37.3z"/>
	<polygon class="st0" points="41.3,37.2 41.3,36.7 42.3,34.4 41.3,34.4 41.3,34 43.1,34 43.1,34.5 42,36.8 43.1,36.8 43.1,37.2 	"/>
	<path class="st0" d="M45.2,37.2v-2.4c0-0.3-0.1-0.5-0.3-0.5c-0.3,0-0.3,0.1-0.3,0.5v2.4h-0.8V34h0.8v0.3c0.2-0.2,0.5-0.3,0.8-0.3
		c0.6,0,0.7,0.3,0.7,0.8v2.5L45.2,37.2L45.2,37.2z"/>
	<path class="st0" d="M48.3,35.6L48.3,35.6c-0.5,0-0.7,0.1-0.7,0.4v0.4c0,0.3,0.1,0.5,0.4,0.5c0.3,0,0.3-0.1,0.3-0.5V35.6z
		 M48.4,37.2v-0.3c-0.2,0.2-0.5,0.3-0.8,0.3c-0.6,0-0.8-0.3-0.8-0.8V36c0-0.5,0.5-0.7,1.5-0.8v-0.4c0-0.3-0.1-0.5-0.3-0.5
		s-0.3,0.1-0.3,0.4v0.1h-0.8v-0.1c0-0.6,0.3-0.9,1.2-0.9c0.8,0,1.1,0.2,1.1,0.9v2.4L48.4,37.2L48.4,37.2z"/>
	<path class="st0" d="M51.1,37.3c-0.9,0-1.1-0.3-1.1-1.1V35c0-0.8,0.2-1.1,1.1-1.1c0.8,0,1.1,0.3,1.1,0.9V35h-0.8v-0.3
		c0-0.3-0.1-0.5-0.3-0.5s-0.3,0.2-0.3,0.5v1.6c0,0.3,0,0.5,0.3,0.5s0.3-0.2,0.3-0.5V36h0.8v0.2C52.2,37,51.8,37.3,51.1,37.3"/>
	<polygon class="st0" points="52.7,37.2 52.7,36.7 53.7,34.4 52.7,34.4 52.7,34 54.5,34 54.5,34.5 53.4,36.8 54.5,36.8 54.5,37.2 	
		"/>
	<path class="st0" d="M56.5,35.6L56.5,35.6c-0.5,0-0.7,0.1-0.7,0.4v0.4c0,0.3,0.1,0.5,0.4,0.5c0.3,0,0.4-0.1,0.4-0.5v-0.8H56.5z
		 M56.6,37.2v-0.3c-0.2,0.2-0.4,0.3-0.8,0.3c-0.6,0-0.8-0.3-0.8-0.8V36c0-0.5,0.5-0.7,1.5-0.8v-0.4c0-0.3-0.1-0.5-0.4-0.5
		c-0.2,0-0.3,0.1-0.3,0.4v0.1H55v-0.1c0-0.6,0.3-0.9,1.1-0.9s1.1,0.2,1.1,0.9v2.4L56.6,37.2L56.6,37.2z"/>
	<polygon class="st0" points="63.1,37.2 62.1,37.2 61.6,34.5 61.6,34.5 61.1,37.2 60.2,37.2 59.5,34 60.3,34 60.6,36.7 60.7,36.7 
		61.1,34 62.1,34 62.6,36.7 62.6,36.7 63,34 63.7,34 	"/>
	<path class="st0" d="M65,34L65,34h-0.8v3.2H65V34z M65.1,32.6h-0.9v0.6h0.9V32.6z"/>
	<path class="st0" d="M67.3,35.6L67.3,35.6c-0.5,0-0.7,0.1-0.7,0.4v0.4c0,0.3,0.1,0.5,0.4,0.5s0.3-0.1,0.3-0.5
		C67.3,36.4,67.3,35.6,67.3,35.6z M67.4,37.2v-0.3c-0.2,0.2-0.5,0.3-0.8,0.3c-0.6,0-0.8-0.3-0.8-0.8V36c0-0.5,0.5-0.7,1.5-0.8v-0.4
		c0-0.3-0.1-0.5-0.3-0.5c-0.2,0-0.3,0.1-0.3,0.4v0.1h-0.8v-0.1c0-0.6,0.3-0.9,1.2-0.9c0.8,0,1.1,0.2,1.1,0.9v2.4L67.4,37.2
		L67.4,37.2z"/>
	<path class="st0" d="M70.6,34.5c-0.6,0-0.8,0.2-0.8,0.6v2.2H69V34h0.8v0.3c0.2-0.2,0.4-0.3,0.7-0.3h0.1V34.5L70.6,34.5z"/>
	<polygon class="st0" points="72.1,38.4 71.4,38.4 71.8,37.1 71,34 71.8,34 72.2,36.2 72.2,36.2 72.6,34 73.4,34 	"/>
	<path class="st0" d="M75.3,34.8L75.3,34.8c0-0.3-0.1-0.5-0.3-0.5c-0.3,0-0.4,0.2-0.4,0.5v1.4c0,0.3,0.1,0.5,0.3,0.5
		c0.3,0,0.4-0.1,0.4-0.5V34.8z M75,38.5c-0.8,0-1.2-0.3-1.2-0.8v-0.1h0.8v0.1c0,0.3,0.1,0.4,0.3,0.4c0.3,0,0.4-0.1,0.4-0.5v-0.8
		c-0.2,0.2-0.4,0.3-0.7,0.3c-0.6,0-0.8-0.2-0.8-0.8v-1.6c0-0.5,0.2-0.8,0.8-0.8c0.3,0,0.6,0.1,0.7,0.3v-0.3h0.8v3.5
		C76.1,38.2,75.9,38.5,75,38.5z"/>
	<path class="st0" d="M78.5,34.8L78.5,34.8c0-0.3-0.1-0.5-0.3-0.5c-0.3,0-0.3,0.1-0.3,0.5v1.6c0,0.3,0.1,0.5,0.3,0.5
		c0.3,0,0.3-0.2,0.3-0.5V34.8z M78.1,37.3c-0.9,0-1.2-0.3-1.2-1.1V35c0-0.8,0.2-1.1,1.2-1.1c0.9,0,1.2,0.3,1.2,1.1v1.2
		C79.3,37,79.1,37.3,78.1,37.3z"/>
	<path class="st0" d="M81.6,34.8L81.6,34.8c0-0.3-0.1-0.5-0.3-0.5c-0.3,0-0.3,0.1-0.3,0.5v1.6c0,0.3,0.1,0.5,0.3,0.5
		c0.3,0,0.4-0.1,0.4-0.5L81.6,34.8L81.6,34.8z M81.6,37.2v-0.3c-0.2,0.2-0.4,0.3-0.7,0.3c-0.6,0-0.8-0.3-0.8-0.8v-1.8
		c0-0.6,0.2-0.8,0.8-0.8c0.3,0,0.6,0.1,0.7,0.3v-1.6h0.8v4.6L81.6,37.2L81.6,37.2z"/>
	<path class="st0" d="M84.7,37.2v-2.4c0-0.3-0.1-0.5-0.3-0.5c-0.3,0-0.4,0.1-0.4,0.5v2.4h-0.8V34H84v0.3c0.2-0.2,0.5-0.3,0.8-0.3
		c0.6,0,0.7,0.3,0.7,0.8v2.5L84.7,37.2L84.7,37.2z"/>
	<path class="st0" d="M87.9,34.8L87.9,34.8c0-0.3-0.1-0.5-0.4-0.5s-0.4,0.1-0.4,0.5v1.6c0,0.3,0.1,0.5,0.4,0.5s0.4-0.2,0.4-0.5V34.8
		z M87.5,37.3c-0.9,0-1.2-0.3-1.2-1.1V35c0-0.8,0.2-1.1,1.2-1.1c0.9,0,1.2,0.3,1.2,1.1v1.2C88.7,37,88.5,37.3,87.5,37.3z"/>
	<path class="st0" d="M90.8,33.6L90.8,33.6h-0.5l0.4-0.9h0.8L90.8,33.6z M90.5,37.3c-0.9,0-1.1-0.2-1.1-0.9v-0.2h0.8v0.3
		c0,0.3,0,0.4,0.3,0.4s0.4-0.1,0.4-0.4v-0.1c0-0.1-0.1-0.3-0.3-0.5L90,35.4c-0.2-0.2-0.4-0.3-0.4-0.6v-0.2c0-0.5,0.4-0.7,1.1-0.7
		c0.8,0,1,0.3,1,0.9V35h-0.8v-0.2c0-0.3,0-0.4-0.3-0.4c-0.2,0-0.3,0.1-0.3,0.3v0.1c0,0.1,0.1,0.2,0.3,0.4l0.7,0.5
		c0.3,0.2,0.4,0.4,0.4,0.6v0.3C91.7,37,91.3,37.3,90.5,37.3z"/>
	<path class="st0" d="M93.7,33.6L93.7,33.6h-0.5l0.4-0.9h0.8L93.7,33.6z M93.5,37.3c-0.9,0-1.1-0.3-1.1-1.1V35
		c0-0.8,0.2-1.1,1.1-1.1c0.8,0,1.1,0.3,1.1,0.9V35h-0.8v-0.3c0-0.3-0.1-0.5-0.3-0.5c-0.2,0-0.3,0.2-0.3,0.5v1.6c0,0.3,0,0.5,0.3,0.5
		s0.3-0.2,0.3-0.5V36h0.8v0.2C94.6,37,94.3,37.3,93.5,37.3z"/>
</g>
</svg>
