<?xml version="1.0" encoding="UTF-8"?><svg id="Layer_1" xmlns="http://www.w3.org/2000/svg" viewBox="0 0 990.15 598.72"><defs><style>.cls-1{fill:#016e9f;}.cls-2{fill:#78be20;}</style></defs><path class="cls-2" d="M254.84,82.04l-40.21-.28C202.59,35.04,160.33,.35,109.79,0,49.57-.41,.42,48.08,0,108.29c-.42,60.22,48.07,109.38,108.28,109.8,50.27,.35,92.79-33.38,105.73-79.55l-95.38-.66,.2-28.34,99.25,.69v-.1s39.32,.27,39.32,.27c0,.08,.01,.17,.01,.25-.16,23.36-5.68,45.42-15.38,65.03l66.69,40.67c14.69-14.4,34.83-23.24,57.02-23.09,28.65,.2,54.4,15.33,68.55,37.95V28.11l-201.52-.6c10.72,16.25,18.37,34.7,22.08,54.54Z"/><path class="cls-2" d="M113.06,451.06c.28-40.19,33.09-72.56,73.29-72.28,14.99,.1,28.88,4.73,40.4,12.58l70.61-73.97c-8.16-12.71-12.9-27.82-12.78-44.06,.04-6.34,.88-12.46,2.31-18.37l-70.25-42.83c-27.46,29.04-66.42,47.09-109.54,46.79-37.57-.26-71.95-14.81-98.03-37.9v231.35H113.06s0-1.29,0-1.3Z"/><path class="cls-1" d="M366.75,354.52c-12.16-.08-23.63-2.94-33.93-7.83l-76.48,80.12c2.86,7.89,4.47,14.65,4.41,23.53,0,0,0,2,0,2.01h173.54v-134.85c-14.45,22.42-38.87,37.21-67.54,37.01Z"/><path class="cls-1" d="M398.12,247.47c-4.53-5.03-13.58-14.95-29.61-15.06-22.63-.16-40.43,19.13-40.59,41.93-.17,23.97,19.57,41.74,40.16,41.88,3.08,.02,27.06-.1,37.67-26.79l-50.72-.35,.1-14.56,68.81,.48c-.83,36.46-30.09,55.96-56.56,55.78-31.75-.22-55.55-26.12-55.34-56.55,.22-31.34,24.66-56.61,55.98-56.39,18.52,.13,38.15,10.12,48.61,29.76l-18.53-.13Z"/><path class="cls-1" d="M449.65,290.56c3.2,13.57,14.07,19.22,22.93,19.28,9.76,.07,16.89-5.59,20.11-11.64l13.17,.09c-6.84,18.07-22.97,23.66-33.87,23.59-19.89-.14-35.61-17.35-35.47-37.24,.15-21.04,16.47-36.76,36.24-36.62,19,.13,35.48,15.7,35.46,36.23-.02,2.29-.28,5.82-.41,6.71l-58.16-.4Zm45.43-9.83c-.56-10.25-9.87-20.58-22.54-20.67-12.67-.09-22.12,10.12-22.83,20.36l45.36,.31Z"/><path class="cls-1" d="M570.18,320.78l.26-38.14c.04-5.44,.15-21.91-17.34-22.04-11.01-.08-18.54,7.6-18.64,21.66l-.26,38.26-13.18-.09,.48-70.18,12.29,.08-.05,7.47h.25c7.16-9.32,17.81-9.25,20.59-9.23,10.91,.08,19.74,4.82,24.75,12.72,2.75,4.58,4.24,10.16,4.31,18.02l-.29,41.55-13.17-.09Z"/><path class="cls-1" d="M610.03,291.67c3.21,13.57,14.07,19.22,22.94,19.28,9.76,.07,16.88-5.59,20.09-11.64l13.18,.09c-6.84,18.07-22.97,23.66-33.87,23.59-19.88-.14-35.61-17.35-35.47-37.24,.15-21.04,16.47-36.76,36.24-36.62,19,.13,35.48,15.7,35.48,36.23-.02,2.29-.3,5.82-.44,6.71l-58.14-.4Zm45.42-9.83c-.54-10.25-9.85-20.58-22.53-20.67-12.66-.09-22.11,10.12-22.82,20.36l45.35,.31Z"/><path class="cls-1" d="M709.5,270.18c-.72-5.71-4.12-8.52-8.93-8.55s-8.26,2.99-8.29,7.42c-.04,5.83,5.02,7.39,10.83,9.19,5.44,1.69,21.12,6.23,21,22.95-.09,12.42-8.77,22.37-23.72,22.27-8.87-.06-24.79-5.74-24.66-25l13.18,.09c.46,7.86,4.47,12.82,11.83,12.87,5.94,.04,10.14-3.6,10.19-9.55,.04-6.21-5.39-8.4-12.21-10.85-7.58-2.84-19.73-6.34-19.62-21.29,.07-10.39,8.88-20.21,22.19-20.12,7.99,.06,21.12,5.09,21.39,20.67l-13.18-.09Z"/><path class="cls-1" d="M745.07,292.6c3.21,13.57,14.06,19.22,22.94,19.28,9.76,.07,16.88-5.59,20.08-11.64l13.2,.09c-6.85,18.07-22.97,23.66-33.87,23.59-19.88-.14-35.6-17.35-35.46-37.24,.15-21.04,16.46-36.76,36.23-36.62,19.01,.13,35.5,15.7,35.48,36.23-.02,2.29-.29,5.82-.43,6.71l-58.15-.4Zm45.42-9.83c-.56-10.25-9.87-20.58-22.53-20.67-12.66-.09-22.11,10.12-22.82,20.36l45.35,.31Z"/><path class="cls-1" d="M826.41,293.16c3.2,13.57,14.07,19.22,22.94,19.28,9.75,.07,16.88-5.59,20.09-11.64l13.18,.09c-6.84,18.07-22.97,23.66-33.87,23.59-19.89-.14-35.61-17.35-35.48-37.24,.15-21.04,16.47-36.76,36.23-36.62,19.01,.13,35.49,15.7,35.49,36.23-.02,2.29-.31,5.82-.44,6.71l-58.14-.4Zm45.42-9.83c-.56-10.25-9.85-20.58-22.54-20.67-12.66-.09-22.1,10.12-22.81,20.36l45.35,.31Z"/><path class="cls-1" d="M465.5,420.43c0,3.48,1.56,18.68,16.76,18.66,9.5-.01,16.59-6.57,16.58-17.45-.01-11.58-9.49-14.08-16.62-16.86-13.8-5.28-17.15-6.95-21.9-11.55-4.75-4.59-6.98-12.13-6.99-19.38-.01-11.99,9.31-28.04,28.83-28.06,17.17-.02,29.59,11.27,29.61,28.7l-15.06,.02c-.01-11.43-8.38-14.92-14.53-14.91-8.92,0-13.79,8.11-13.78,14.11,.01,9.9,9.35,12.55,13.81,14.21,12.99,4.87,31.68,8.89,31.71,33.72,.02,17.99-12.67,31.26-31.64,31.28-14.23,.02-31.8-9.46-31.83-32.46l15.06-.02Z"/><path class="cls-1" d="M576.63,404.15c-2.17-4.43-7.23-13.16-19.78-13.15-16.96,.02-23.03,14.21-23.02,24.86,.01,12.16,7.75,24.94,22.82,24.92,9.88-.01,16.59-5.72,19.88-12.94l14.7-.02c-5.3,15.59-18.99,24.98-34.57,24.99-23.06,.02-36-18.84-36.02-36.95-.02-19.01,13.91-36.88,36.07-36.91,19.88-.02,31.81,14.79,34.49,25.17l-14.58,.02Z"/><path class="cls-1" d="M616.88,372.69h-13.19s-.02-15.44-.02-15.44h13.19s.02,15.44,.02,15.44Zm.08,78.29h-13.19s-.07-70.17-.07-70.17h13.19s.07,70.17,.07,70.17Z"/><path class="cls-1" d="M643.54,421.57c3.31,13.55,14.21,19.11,23.08,19.1,9.76-.01,16.85-5.72,20-11.8h13.18c-6.7,18.1-22.79,23.83-33.68,23.84-19.89,.02-35.74-17.07-35.76-36.95-.02-21.04,16.17-36.89,35.93-36.91,19-.02,35.63,15.42,35.77,35.93,0,2.29-.26,5.83-.38,6.72l-58.15,.06Zm45.34-10.19c-.64-10.25-10.02-20.5-22.7-20.49-12.66,.01-22.02,10.28-22.65,20.54l45.35-.05Z"/><path class="cls-1" d="M764.29,450.83l-.04-38.14c0-5.45-.02-21.91-17.5-21.9-11.02,.01-18.49,7.74-18.48,21.81l.04,38.26h-13.18s-.07-70.17-.07-70.17h12.28s0,7.45,0,7.45h.27c7.08-9.37,17.73-9.39,20.51-9.39,10.89-.01,19.76,4.66,24.85,12.51,2.79,4.56,4.31,10.13,4.45,17.99l.04,41.55h-13.18Z"/><path class="cls-1" d="M809.02,450.78h-13.17s-.06-58.14-.06-58.14h-9.51s-.01-12.02-.01-12.02h9.51s-.03-23.58-.03-23.58h13.17s.03,23.55,.03,23.55h11.54s.01,12.02,.01,12.02h-11.54s.06,58.17,.06,58.17Z"/><path class="cls-1" d="M842.51,372.45h-13.18s-.02-15.44-.02-15.44h13.18s.02,15.44,.02,15.44Zm.08,78.29h-13.18s-.07-70.17-.07-70.17h13.18s.07,70.17,.07,70.17Z"/><path class="cls-1" d="M859.95,450.73l-.06-58.15h-6.22s-.01-12.03-.01-12.03h6.22s0-3.43,0-3.43c0-7.47,2.9-12.67,8.35-16.35,5.7-3.43,9.36-3.81,17.09-3.82v12.04c-8.72,0-12.27,3.18-12.26,8.12v3.42s12.29-.01,12.29-.01v12.03s-12.27,.01-12.27,.01l.06,58.15h-13.17Z"/><path class="cls-1" d="M903.98,372.39h-13.19s-.02-15.44-.02-15.44h13.19s.02,15.44,.02,15.44Zm.08,78.29h-13.19s-.07-70.17-.07-70.17h13.19s.07,70.17,.07,70.17Z"/><path class="cls-1" d="M973.3,403.73c-2.14-4.43-7.23-13.16-19.77-13.15-16.98,.02-23.03,14.21-23.02,24.86,.01,12.16,7.74,24.94,22.82,24.92,9.88-.01,16.59-5.72,19.88-12.94l14.7-.02c-5.31,15.59-18.98,24.98-34.56,24.99-23.06,.02-36.01-18.84-36.03-36.95-.02-19.01,13.91-36.88,36.07-36.91,19.88-.02,31.82,14.79,34.49,25.17l-14.58,.02Z"/><rect class="cls-1" x="7.65" y="490.01" width="981.74" height="4.46"/><g><path class="cls-1" d="M33.52,522.35h6.8l26.06,60.64h-6.64l-8.77-20.4H22.78l-8.85,20.4H7.62l25.89-60.64Zm-8.44,34.74h23.52l-11.64-27.86-11.88,27.86Z"/><path class="cls-1" d="M96.69,522.35h6.06v55.14h25.07v5.49h-31.14v-60.64Z"/><path class="cls-1" d="M133.15,522.35h5.74v10.32h-5.74v-10.32Zm0,15.81h5.74v44.82h-5.74v-44.82Z"/><path class="cls-1" d="M152.74,543.33h-6.97v-5.16h6.97c.05-1.04,.12-2.17,.2-3.4,.08-1.23,.3-2.46,.66-3.69,.35-1.23,.89-2.43,1.6-3.6,.71-1.17,1.69-2.21,2.95-3.11s2.84-1.62,4.75-2.17c1.91-.55,4.26-.85,7.05-.9v5.33c-2.84,0-5.03,.38-6.55,1.15-1.53,.76-2.66,1.72-3.4,2.87-.74,1.15-1.18,2.38-1.31,3.69-.14,1.31-.21,2.49-.21,3.52v.33h11.47v5.16h-11.47v39.66h-5.73v-39.66Z"/><path class="cls-1" d="M178.96,562.66c.11,2.19,.66,4.26,1.64,6.23s2.28,3.69,3.89,5.16c1.61,1.48,3.44,2.65,5.49,3.52,2.05,.87,4.16,1.31,6.35,1.31,2.02-.05,3.91-.37,5.65-.94s3.3-1.34,4.67-2.3c1.36-.95,2.54-2.06,3.52-3.32s1.72-2.59,2.21-4.01h6.06c-.77,2.24-1.86,4.31-3.28,6.23-1.42,1.91-3.1,3.58-5.04,5-1.94,1.42-4.07,2.53-6.39,3.32-2.32,.79-4.77,1.19-7.34,1.19-3.11,0-6.09-.6-8.93-1.8-2.84-1.2-5.32-2.85-7.46-4.96-2.13-2.1-3.82-4.57-5.08-7.42-1.26-2.84-1.88-5.93-1.88-9.26s.6-6.17,1.8-9.02c1.2-2.84,2.85-5.32,4.95-7.46s4.56-3.84,7.38-5.12c2.81-1.28,5.86-1.95,9.14-2.01,2.46,0,4.74,.34,6.85,1.02,2.1,.68,3.98,1.57,5.65,2.66s3.13,2.32,4.38,3.69c1.26,1.36,2.29,2.73,3.11,4.1,1.31,2.13,2.22,4.26,2.74,6.39,.52,2.13,.78,4.18,.78,6.15,0,.27-.01,.55-.04,.82-.03,.28-.04,.55-.04,.82h-40.81Zm34.99-5.16c-.44-2.62-1.27-4.9-2.5-6.84-1.23-1.94-2.66-3.54-4.3-4.79-1.64-1.26-3.39-2.18-5.24-2.79-1.86-.6-3.69-.9-5.49-.9s-3.56,.3-5.45,.9c-1.89,.6-3.65,1.53-5.28,2.79-1.64,1.26-3.07,2.85-4.3,4.79-1.23,1.94-2.03,4.22-2.42,6.84h34.99Z"/><path class="cls-1" d="M253.76,566.03c.16,3.82,1.37,6.87,3.61,9.14,2.24,2.27,5.24,3.4,9.01,3.4,1.58,0,3.11-.29,4.59-.86,1.48-.57,2.77-1.39,3.89-2.46,1.12-1.07,2.02-2.34,2.7-3.81,.68-1.48,1.02-3.11,1.02-4.92,0-2.35-.52-4.29-1.56-5.82-1.04-1.53-2.27-2.77-3.69-3.73-1.42-.95-2.9-1.68-4.42-2.17-1.53-.49-2.81-.9-3.85-1.23-1.37-.38-2.95-.87-4.75-1.47-1.8-.6-3.52-1.48-5.16-2.62-1.64-1.15-3.02-2.66-4.14-4.55-1.12-1.88-1.68-4.33-1.68-7.33,0-2.35,.44-4.52,1.31-6.51s2.08-3.71,3.61-5.16c1.53-1.45,3.33-2.58,5.41-3.4,2.07-.82,4.31-1.23,6.72-1.23s4.72,.44,6.8,1.31c2.07,.88,3.85,2.08,5.32,3.61,1.48,1.53,2.62,3.29,3.44,5.28,.82,1.99,1.23,4.08,1.23,6.27h-6.06c0-1.53-.29-2.96-.86-4.3s-1.35-2.5-2.33-3.48-2.13-1.76-3.44-2.33-2.68-.86-4.1-.86c-1.75,0-3.3,.3-4.67,.9-1.37,.6-2.51,1.41-3.44,2.42-.93,1.01-1.64,2.14-2.13,3.4s-.74,2.54-.74,3.85c0,1.86,.38,3.39,1.15,4.59,.76,1.2,1.8,2.21,3.11,3.03,1.31,.82,2.84,1.51,4.59,2.09,1.75,.57,3.6,1.14,5.57,1.68,3.66,.98,6.5,2.35,8.52,4.1,2.02,1.75,3.49,3.54,4.42,5.37s1.48,3.49,1.64,5,.24,2.5,.24,2.99v.08c0,2.35-.45,4.59-1.35,6.72-.9,2.13-2.16,4.01-3.77,5.65-1.61,1.64-3.54,2.95-5.77,3.93-2.24,.98-4.7,1.47-7.38,1.47-1.97,0-4.03-.31-6.18-.94-2.16-.63-4.15-1.65-5.98-3.07-1.83-1.42-3.36-3.28-4.59-5.57-1.23-2.29-1.87-5.11-1.92-8.44h6.06Z"/><path class="cls-1" d="M336.44,569.79c-.71,1.42-1.64,2.95-2.79,4.59-1.15,1.64-2.61,3.18-4.38,4.63s-3.9,2.65-6.39,3.6c-2.48,.96-5.39,1.43-8.73,1.43-3.5,0-6.72-.63-9.67-1.88-2.95-1.25-5.49-2.96-7.62-5.12-2.13-2.16-3.8-4.65-5-7.5-1.2-2.84-1.8-5.82-1.8-8.93s.63-6.27,1.88-9.14c1.26-2.87,2.98-5.37,5.16-7.5,2.18-2.13,4.74-3.82,7.66-5.08,2.92-1.26,6.05-1.88,9.38-1.88,1.97,0,4.03,.26,6.18,.78,2.16,.52,4.25,1.37,6.27,2.54,2.02,1.18,3.89,2.69,5.61,4.55,1.72,1.86,3.13,4.12,4.22,6.8h-6.31c-.93-1.69-2.01-3.14-3.23-4.34-1.23-1.2-2.54-2.18-3.93-2.95-1.39-.77-2.83-1.32-4.3-1.68-1.48-.35-2.92-.53-4.34-.53-2.18,0-4.38,.4-6.6,1.19-2.21,.79-4.19,1.96-5.94,3.52-1.75,1.56-3.18,3.47-4.3,5.74-1.12,2.27-1.68,4.87-1.68,7.83,0,2.51,.46,4.89,1.39,7.13,.93,2.24,2.21,4.19,3.85,5.86,1.64,1.67,3.59,2.99,5.86,3.97s4.74,1.47,7.42,1.47c2.35,0,4.41-.31,6.19-.94,1.77-.63,3.29-1.41,4.55-2.34,1.25-.93,2.31-1.91,3.15-2.95,.85-1.04,1.49-1.99,1.92-2.87h6.31Z"/><path class="cls-1" d="M345.04,522.35h5.74v10.32h-5.74v-10.32Zm0,15.81h5.74v44.82h-5.74v-44.82Z"/><path class="cls-1" d="M365.12,562.66c.11,2.19,.66,4.26,1.64,6.23s2.28,3.69,3.89,5.16c1.61,1.48,3.44,2.65,5.49,3.52,2.05,.87,4.16,1.31,6.35,1.31,2.02-.05,3.91-.37,5.65-.94s3.3-1.34,4.67-2.3c1.36-.95,2.54-2.06,3.52-3.32,.98-1.26,1.72-2.59,2.21-4.01h6.06c-.77,2.24-1.86,4.31-3.28,6.23-1.42,1.91-3.1,3.58-5.04,5-1.94,1.42-4.07,2.53-6.39,3.32-2.32,.79-4.77,1.19-7.34,1.19-3.11,0-6.09-.6-8.93-1.8-2.84-1.2-5.32-2.85-7.46-4.96s-3.82-4.57-5.08-7.42c-1.26-2.84-1.88-5.93-1.88-9.26s.6-6.17,1.8-9.02c1.2-2.84,2.85-5.32,4.95-7.46,2.1-2.13,4.56-3.84,7.38-5.12,2.81-1.28,5.86-1.95,9.14-2.01,2.46,0,4.74,.34,6.85,1.02,2.1,.68,3.98,1.57,5.65,2.66s3.13,2.32,4.38,3.69c1.26,1.36,2.29,2.73,3.11,4.1,1.31,2.13,2.22,4.26,2.74,6.39,.52,2.13,.78,4.18,.78,6.15,0,.27-.01,.55-.04,.82-.03,.28-.04,.55-.04,.82h-40.81Zm34.99-5.16c-.44-2.62-1.27-4.9-2.5-6.84-1.23-1.94-2.66-3.54-4.3-4.79-1.64-1.26-3.39-2.18-5.24-2.79-1.86-.6-3.69-.9-5.49-.9s-3.56,.3-5.45,.9c-1.89,.6-3.65,1.53-5.28,2.79-1.64,1.26-3.07,2.85-4.3,4.79-1.23,1.94-2.03,4.22-2.42,6.84h34.99Z"/><path class="cls-1" d="M414.69,538.17h5.74v5.73h.16c.44-.65,1.04-1.39,1.8-2.21,.76-.82,1.72-1.57,2.87-2.25,1.15-.68,2.47-1.26,3.97-1.72,1.5-.46,3.21-.7,5.12-.7,2.78,0,5.32,.4,7.62,1.19,2.29,.79,4.48,2.23,6.55,4.3,1.69,1.64,3.04,3.76,4.06,6.35,1.01,2.59,1.51,5.75,1.51,9.47v24.66h-5.73v-24.66c0-2.95-.4-5.43-1.19-7.46-.79-2.02-1.82-3.63-3.07-4.83-1.58-1.53-3.29-2.55-5.12-3.07-1.83-.52-3.37-.78-4.63-.78s-2.8,.26-4.63,.78c-1.83,.52-3.54,1.54-5.12,3.07-1.2,1.15-2.2,2.72-2.99,4.71-.79,2-1.19,4.38-1.19,7.17v25.07h-5.74v-44.82Z"/><path class="cls-1" d="M509.09,569.79c-.71,1.42-1.64,2.95-2.79,4.59-1.15,1.64-2.61,3.18-4.38,4.63s-3.9,2.65-6.39,3.6c-2.48,.96-5.39,1.43-8.73,1.43-3.5,0-6.72-.63-9.67-1.88-2.95-1.25-5.49-2.96-7.62-5.12-2.13-2.16-3.8-4.65-5-7.5-1.2-2.84-1.8-5.82-1.8-8.93s.63-6.27,1.88-9.14c1.26-2.87,2.98-5.37,5.16-7.5,2.18-2.13,4.74-3.82,7.66-5.08,2.92-1.26,6.05-1.88,9.38-1.88,1.97,0,4.03,.26,6.18,.78,2.16,.52,4.25,1.37,6.27,2.54,2.02,1.18,3.89,2.69,5.61,4.55s3.13,4.12,4.22,6.8h-6.31c-.93-1.69-2.01-3.14-3.23-4.34-1.23-1.2-2.54-2.18-3.93-2.95-1.39-.77-2.83-1.32-4.3-1.68-1.48-.35-2.92-.53-4.34-.53-2.18,0-4.38,.4-6.6,1.19-2.21,.79-4.19,1.96-5.94,3.52-1.75,1.56-3.18,3.47-4.3,5.74-1.12,2.27-1.68,4.87-1.68,7.83,0,2.51,.46,4.89,1.39,7.13,.93,2.24,2.21,4.19,3.85,5.86,1.64,1.67,3.59,2.99,5.86,3.97s4.74,1.47,7.42,1.47c2.35,0,4.41-.31,6.19-.94,1.77-.63,3.29-1.41,4.55-2.34,1.25-.93,2.31-1.91,3.15-2.95,.85-1.04,1.49-1.99,1.92-2.87h6.31Z"/><path class="cls-1" d="M521.37,562.66c.11,2.19,.66,4.26,1.64,6.23,.98,1.97,2.28,3.69,3.89,5.16,1.61,1.48,3.44,2.65,5.49,3.52,2.05,.87,4.16,1.31,6.35,1.31,2.02-.05,3.91-.37,5.65-.94s3.3-1.34,4.67-2.3c1.36-.95,2.54-2.06,3.52-3.32,.98-1.26,1.72-2.59,2.21-4.01h6.06c-.77,2.24-1.86,4.31-3.28,6.23-1.42,1.91-3.1,3.58-5.04,5-1.94,1.42-4.07,2.53-6.39,3.32-2.32,.79-4.77,1.19-7.34,1.19-3.11,0-6.09-.6-8.93-1.8-2.84-1.2-5.32-2.85-7.46-4.96-2.13-2.1-3.82-4.57-5.08-7.42-1.26-2.84-1.88-5.93-1.88-9.26s.6-6.17,1.8-9.02c1.2-2.84,2.85-5.32,4.95-7.46,2.1-2.13,4.56-3.84,7.38-5.12,2.81-1.28,5.86-1.95,9.14-2.01,2.46,0,4.74,.34,6.85,1.02,2.1,.68,3.98,1.57,5.65,2.66,1.67,1.09,3.13,2.32,4.38,3.69,1.26,1.36,2.29,2.73,3.11,4.1,1.31,2.13,2.22,4.26,2.74,6.39,.52,2.13,.78,4.18,.78,6.15,0,.27-.01,.55-.04,.82-.03,.28-.04,.55-.04,.82h-40.81Zm34.99-5.16c-.44-2.62-1.27-4.9-2.5-6.84-1.23-1.94-2.66-3.54-4.3-4.79-1.64-1.26-3.39-2.18-5.24-2.79-1.86-.6-3.69-.9-5.49-.9s-3.56,.3-5.45,.9c-1.89,.6-3.65,1.53-5.28,2.79-1.64,1.26-3.07,2.85-4.3,4.79-1.23,1.94-2.03,4.22-2.42,6.84h34.99Z"/><path class="cls-1" d="M651.49,567.09c-1.64,2.95-3.55,5.5-5.73,7.66-2.19,2.16-4.52,3.92-7.01,5.28-2.49,1.37-5.03,2.38-7.62,3.03-2.59,.65-5.12,.98-7.58,.98-4.26,0-8.31-.79-12.13-2.37s-7.18-3.77-10.08-6.55c-2.9-2.79-5.2-6.09-6.93-9.92-1.72-3.82-2.58-7.98-2.58-12.46s.83-8.63,2.5-12.45,3.93-7.14,6.8-9.96c2.87-2.81,6.23-5.01,10.08-6.6s7.94-2.38,12.25-2.38c3.88,0,7.4,.6,10.57,1.8,3.17,1.2,5.93,2.66,8.28,4.38,2.35,1.72,4.27,3.52,5.77,5.41,1.5,1.89,2.55,3.54,3.15,4.96h-6.8c-1.64-2.46-3.5-4.42-5.57-5.9-2.07-1.48-4.09-2.59-6.06-3.36-1.97-.76-3.8-1.26-5.49-1.47-1.69-.22-3-.33-3.93-.33-3.55,0-6.87,.73-9.96,2.17-3.09,1.45-5.78,3.37-8.07,5.77-2.29,2.4-4.11,5.16-5.45,8.28-1.34,3.11-2.01,6.36-2.01,9.75s.71,6.88,2.13,10c1.42,3.11,3.32,5.85,5.69,8.2,2.38,2.35,5.11,4.19,8.2,5.53,3.08,1.34,6.27,2.01,9.55,2.01,.76,0,1.91-.08,3.44-.25s3.26-.61,5.2-1.35c1.94-.74,4-1.87,6.18-3.4,2.18-1.53,4.31-3.69,6.39-6.47h6.8Z"/><path class="cls-1" d="M658.37,560.86c0-3.55,.67-6.79,2.01-9.71,1.34-2.92,3.09-5.43,5.24-7.54,2.16-2.1,4.64-3.73,7.46-4.87,2.81-1.15,5.69-1.72,8.64-1.72,3.33,0,6.43,.65,9.3,1.97,2.87,1.31,5.35,3.04,7.46,5.2,2.1,2.16,3.75,4.66,4.96,7.5,1.2,2.84,1.8,5.79,1.8,8.85s-.6,6.01-1.8,8.85c-1.2,2.84-2.84,5.34-4.92,7.5-2.07,2.16-4.56,3.89-7.46,5.2-2.9,1.31-6.01,1.96-9.34,1.96s-6.33-.64-9.18-1.92c-2.84-1.28-5.31-2.99-7.42-5.12-2.1-2.13-3.76-4.59-4.96-7.38-1.2-2.78-1.8-5.71-1.8-8.77Zm5.74-.08c0,2.62,.49,5.04,1.47,7.25,.98,2.21,2.29,4.12,3.93,5.73,1.64,1.61,3.52,2.87,5.65,3.77,2.13,.9,4.34,1.35,6.64,1.35s4.33-.42,6.43-1.27,3.99-2.06,5.65-3.64c1.66-1.58,3.02-3.52,4.05-5.82,1.04-2.29,1.56-4.92,1.56-7.87s-.56-5.55-1.68-7.83c-1.12-2.26-2.54-4.15-4.26-5.65-1.72-1.5-3.63-2.65-5.74-3.44-2.1-.79-4.11-1.19-6.02-1.19-2.08,0-4.15,.41-6.23,1.23-2.08,.82-3.97,2.02-5.69,3.6-1.72,1.59-3.11,3.54-4.18,5.86-1.07,2.32-1.6,4.96-1.6,7.91Z"/><path class="cls-1" d="M719.75,543.33c1.26-2.02,2.95-3.58,5.08-4.67,2.13-1.09,4.51-1.64,7.13-1.64,3.28,0,6.21,.74,8.81,2.21,2.59,1.48,4.68,3.61,6.27,6.39,3.55-5.73,8.58-8.6,15.08-8.6,2.62,0,5.04,.45,7.25,1.35,2.21,.9,4.11,2.19,5.69,3.85,1.58,1.67,2.81,3.69,3.69,6.06,.87,2.38,1.31,5.07,1.31,8.07v26.63h-5.73v-25.98c0-4.8-1.08-8.48-3.24-11.02-2.16-2.54-5.15-3.81-8.97-3.81s-6.82,1.27-8.97,3.81c-2.16,2.54-3.24,6.21-3.24,11.02v25.98h-5.73v-25.98c0-4.8-1.08-8.48-3.24-11.02s-5.15-3.81-8.97-3.81-6.82,1.27-8.97,3.81c-2.16,2.54-3.24,6.21-3.24,11.02v25.98h-5.73v-44.82h5.73v5.16Z"/><path class="cls-1" d="M790.71,538.17h5.73v7.87h.16c1.31-1.86,2.72-3.37,4.22-4.55,1.5-1.17,3.03-2.09,4.59-2.74,1.56-.66,3.09-1.11,4.59-1.35,1.5-.24,2.85-.37,4.05-.37,3.66,0,6.98,.65,9.96,1.97,2.98,1.31,5.5,3.06,7.58,5.24,2.08,2.18,3.69,4.68,4.83,7.5,1.15,2.81,1.72,5.72,1.72,8.73,0,3.22-.6,6.27-1.8,9.14-1.2,2.87-2.87,5.37-5,7.5-2.13,2.13-4.67,3.82-7.62,5.08-2.95,1.26-6.17,1.88-9.67,1.88-1.15,0-2.47-.12-3.97-.37-1.5-.25-3.04-.7-4.63-1.35-1.59-.65-3.14-1.57-4.67-2.74-1.53-1.17-2.92-2.66-4.18-4.46h-.16v23.6h-5.73v-60.56Zm41.71,22.53c0-2.84-.49-5.41-1.47-7.7s-2.32-4.23-4.02-5.82c-1.69-1.58-3.64-2.81-5.86-3.69-2.21-.87-4.55-1.31-7.01-1.31s-4.96,.51-7.17,1.52c-2.21,1.01-4.11,2.35-5.69,4.01-1.59,1.67-2.83,3.62-3.73,5.86-.9,2.24-1.35,4.59-1.35,7.05,0,2.62,.48,5.05,1.43,7.29,.95,2.24,2.25,4.17,3.89,5.78,1.64,1.61,3.55,2.88,5.74,3.81,2.18,.93,4.48,1.39,6.88,1.39,2.73,0,5.23-.48,7.5-1.43,2.26-.95,4.2-2.25,5.82-3.89,1.61-1.64,2.85-3.56,3.73-5.78,.87-2.21,1.31-4.57,1.31-7.09Z"/><path class="cls-1" d="M892.23,582.99h-5.74v-7.87h-.16c-1.26,1.86-2.65,3.36-4.18,4.5-1.53,1.15-3.09,2.05-4.67,2.7-1.58,.66-3.13,1.11-4.63,1.35-1.5,.25-2.82,.37-3.97,.37-3.55,0-6.8-.63-9.75-1.88-2.95-1.25-5.49-2.95-7.62-5.08-2.13-2.13-3.78-4.63-4.95-7.5-1.18-2.87-1.76-5.91-1.76-9.14,0-3,.57-5.91,1.72-8.73,1.15-2.81,2.76-5.31,4.83-7.5,2.08-2.19,4.6-3.93,7.58-5.24,2.97-1.31,6.29-1.97,9.96-1.97,1.2,0,2.56,.12,4.09,.37,1.53,.25,3.09,.7,4.67,1.35s3.13,1.57,4.63,2.74c1.5,1.18,2.85,2.69,4.05,4.55h.16v-7.87h5.74v44.82Zm-41.71-22.29c0,2.51,.43,4.88,1.31,7.09,.87,2.21,2.11,4.14,3.73,5.78,1.61,1.64,3.55,2.94,5.82,3.89,2.27,.96,4.76,1.43,7.5,1.43,2.4,0,4.69-.46,6.88-1.39,2.18-.93,4.1-2.2,5.73-3.81,1.64-1.61,2.94-3.54,3.89-5.78,.95-2.24,1.43-4.67,1.43-7.29,0-2.46-.45-4.81-1.35-7.05-.9-2.24-2.16-4.19-3.77-5.86-1.61-1.67-3.51-3-5.69-4.01-2.19-1.01-4.56-1.52-7.13-1.52s-4.79,.44-7.01,1.31c-2.21,.88-4.16,2.1-5.86,3.69-1.69,1.59-3.03,3.52-4.01,5.82-.98,2.29-1.47,4.86-1.47,7.7Z"/><path class="cls-1" d="M902.64,538.17h5.74v5.73h.16c.44-.65,1.04-1.39,1.8-2.21,.76-.82,1.72-1.57,2.87-2.25s2.47-1.26,3.97-1.72c1.5-.46,3.21-.7,5.12-.7,2.78,0,5.32,.4,7.62,1.19,2.29,.79,4.48,2.23,6.55,4.3,1.69,1.64,3.04,3.76,4.06,6.35,1.01,2.59,1.51,5.75,1.51,9.47v24.66h-5.73v-24.66c0-2.95-.4-5.43-1.19-7.46-.79-2.02-1.82-3.63-3.07-4.83-1.58-1.53-3.29-2.55-5.12-3.07-1.83-.52-3.37-.78-4.63-.78s-2.8,.26-4.63,.78c-1.83,.52-3.54,1.54-5.12,3.07-1.2,1.15-2.2,2.72-2.99,4.71-.79,2-1.19,4.38-1.19,7.17v25.07h-5.74v-44.82Z"/><path class="cls-1" d="M965.97,581.51l-17.45-43.35h6.06l14.26,35.73,15.24-35.73h6.06l-25.97,60.56h-5.98l7.78-17.21Z"/></g></svg>